<svg width="64" height="64" viewBox="0 0 64 64" fill="none" xmlns="http://www.w3.org/2000/svg">
<path d="M6.39648 22.1814C6.39648 22.1814 6.43117 51.1983 7.10025 52.2724C7.76933 53.3471 31.8096 64.255 32.6817 63.9955L32.5329 32.9526L6.39648 22.1814Z" fill="#5925DC"/>
<path d="M15.5098 56.6331C15.5098 56.6331 17.6261 59.7867 22.304 59.7867V30.5102L15.5098 27.4448V56.6331Z" fill="#FFAE1F"/>
<path opacity="0.2" d="M22.304 35.4V30.5102L15.5098 27.4448V33.4824C17.7497 34.2081 20.0098 34.8658 22.304 35.4Z" fill="#FFAE1F"/>
<path d="M32.2852 33.0704L32.6768 63.9955C32.6768 63.9955 56.0126 52.7928 56.2359 51.6103C56.4591 50.4235 57.0733 21.0242 57.0733 21.0242L32.2852 33.0704Z" fill="#3E1C96"/>
<path d="M43.2701 58.8007C43.2701 58.8007 47.3735 58.3301 49.4204 55.6666L50.1286 26.6453L43.166 28.7443L43.2701 58.8007Z" fill="#EF9926"/>
<path opacity="0.17" d="M49.9256 35.0074L50.1286 26.6453L43.166 28.7443L43.1957 37.4158C45.4608 36.6655 47.7058 35.8755 49.9256 35.0074Z" fill="#EF9926"/>
<path d="M4.07303 18.1011C4.07303 18.1011 3.87439 24.6779 4.13231 25.5611C4.39023 26.4437 33.1872 38.1958 33.8165 38.4364C33.8165 38.4364 33.633 30.461 33.6236 30.1473C33.6084 29.7693 4.07303 18.1011 4.07303 18.1011Z" fill="#6938EF"/>
<path d="M33.623 30.1476L33.816 38.4367C33.816 38.4367 58.4459 28.5336 58.8079 27.3417C58.9857 26.7483 59.5413 19.2687 58.6193 19.2933L33.623 30.1476Z" fill="#4A1FB8"/>
<path d="M33.6228 30.1471L58.6191 19.2928C58.6191 19.2928 32.3786 9.28198 31.125 9.31159C29.8908 9.33553 4.07227 18.1009 4.07227 18.1009L33.6228 30.1471Z" fill="#5925DC"/>
<path d="M16.3535 13.9759L45.2646 25.0904L45.8101 33.4872C45.8101 33.4872 49.631 33.8891 51.5682 31.0102L51.0776 22.5642L21.9288 12.1313C21.9288 12.1313 17.855 12.161 16.3535 13.9759Z" fill="#FFAE1F"/>
<path d="M40.3233 12.4357C40.3233 12.4357 44.4216 12.3815 46.444 14.7016L21.2194 25.0948L21.1053 33.1975C21.1053 33.1975 15.5105 32.5896 13.8652 30.1516L14.0784 22.1863L40.3233 12.4357Z" fill="#FFC91F"/>
<path d="M50.4958 2.95486C40.0245 -8.10056 30.5098 15.786 32.8039 18.1011C35.9261 21.2547 61.5763 14.6476 50.4958 2.95486ZM33.5077 17.5077C33.0965 16.9583 41.6451 -3.59308 48.2704 5.02468C55.9966 15.0747 34.1522 18.3657 33.5077 17.5077Z" fill="#FFE424"/>
<path opacity="0.18" d="M51.6273 4.29858C51.6021 4.51932 51.5775 4.74007 51.5479 4.96074C51.2849 6.83458 50.5912 8.35973 49.8383 9.9441C49.6945 10.6749 49.3622 11.347 48.8968 11.965C48.7827 12.1956 48.6338 12.3575 48.4654 12.4747C45.0608 16.1386 36.7058 17.6694 34.213 17.6347C33.6877 17.7135 33.1523 17.7525 32.6074 17.7721C32.6566 17.9044 32.726 18.0171 32.8054 18.1009C35.8084 21.1317 59.6059 15.1483 51.6273 4.29858Z" fill="#FFBB24"/>
<path d="M32.8796 17.3017C34.4751 16.605 34.5545 2.955 27.1757 6.35922C19.3656 9.95885 30.709 18.2435 32.8796 17.3017ZM27.8593 7.8157C32.855 4.858 32.9641 16.6787 32.652 16.8702C32.1613 17.1688 22.0368 11.2635 27.8593 7.8157Z" fill="#FFE424"/>
<path opacity="0.18" d="M26.3475 6.80005C26.3129 6.91281 26.2826 7.02558 26.2529 7.14338C26.0102 8.11983 26.0448 9.00745 26.0997 9.93918C26.0253 10.3266 26.0549 10.7241 26.159 11.1216C26.1691 11.259 26.2082 11.3667 26.2681 11.4549C27.2146 13.9269 31.0305 16.3201 32.269 16.7913C32.5118 16.9337 32.7697 17.0559 33.0327 17.1737C32.9778 17.2279 32.9286 17.272 32.8687 17.2966C30.7927 18.2088 20.2419 10.5918 26.3475 6.80005Z" fill="#FFBB24"/>
<path d="M32.9642 18.0522C35.2584 15.7371 25.7437 -8.14938 15.2724 2.90603C4.19626 14.6038 29.842 21.2109 32.9642 18.0522ZM17.5022 4.97592C24.1281 -3.64184 32.6767 16.9094 32.2655 17.4588C31.621 18.3218 9.77656 15.0309 17.5022 4.97592Z" fill="#FFE424"/>
<path opacity="0.18" d="M14.1468 4.24976C14.1713 4.4705 14.1966 4.69117 14.2262 4.91192C14.4886 6.78563 15.1822 8.31078 15.9358 9.89514C16.0796 10.6259 16.4113 11.2981 16.8773 11.9161C16.9915 12.1466 17.1396 12.3085 17.3087 12.4264C20.7083 16.0852 29.0633 17.6204 31.5611 17.5858C32.0864 17.6645 32.6212 17.7036 33.1667 17.7231C33.1169 17.8554 33.0475 17.9688 32.968 18.052C29.9651 21.0834 6.16823 15.0993 14.1468 4.24976Z" fill="#FFBB24"/>
<path d="M39.4445 11.2683C34.9646 7.61445 32.5513 17.0558 33.5275 17.8161C34.8606 18.8512 44.1874 15.1331 39.4445 11.2683ZM33.7659 17.556C33.5823 17.3701 35.7926 9.2278 38.7067 12.1508C42.1057 15.5646 34.0484 17.8508 33.7659 17.556Z" fill="#FFE424"/>
<path opacity="0.18" d="M39.9341 11.7192C39.9341 11.803 39.9391 11.8862 39.9341 11.9744C39.9246 12.6906 39.7411 13.2986 39.5381 13.9317C39.5179 14.2114 39.429 14.481 39.2801 14.7362C39.2505 14.8294 39.2007 14.8981 39.1414 14.9466C38.0416 16.4868 34.9737 17.4677 34.0322 17.571C33.8392 17.6252 33.6406 17.6642 33.4375 17.6983C33.4621 17.7474 33.4917 17.7865 33.5264 17.811C34.8053 18.812 43.468 15.4178 39.9341 11.7192Z" fill="#FFBB24"/>
<path opacity="0.48" d="M18.393 22.8831C20.2558 21.9905 22.1836 21.2792 24.1764 20.7299C25.0977 20.4798 24.7061 19.0573 23.7797 19.3125C21.6583 19.8914 19.617 20.6663 17.6394 21.6125C16.7824 22.0245 17.5354 23.2951 18.393 22.8831Z" fill="#FFE424"/>
<path opacity="0.48" d="M15.5729 24.6582C15.4935 25.7033 15.4197 26.7478 15.3402 27.7923C15.2709 28.7391 16.7572 28.7341 16.8266 27.7923C16.9061 26.7478 16.9805 25.7033 17.0599 24.6582C17.1293 23.712 15.6423 23.7164 15.5729 24.6582Z" fill="#FFE424"/>
<path opacity="0.45" d="M40.5792 21.3138C42.8091 22.054 45.0396 22.7898 47.2644 23.5307C48.1712 23.8299 48.5628 22.4125 47.661 22.1132C45.4312 21.3724 43.2007 20.6366 40.9759 19.8958C40.064 19.5921 39.6724 21.0146 40.5792 21.3138Z" fill="#FFC91F"/>
<path opacity="0.45" d="M48.628 24.7228C48.6532 25.7672 48.633 26.8073 48.5737 27.8518C48.5189 28.7986 50.0059 28.7936 50.0601 27.8518C50.12 26.8117 50.1396 25.7672 50.115 24.7228C50.0904 23.7759 48.6034 23.7709 48.628 24.7228Z" fill="#FFC91F"/>
<path opacity="0.45" d="M16.8633 48.7016C16.8734 49.9382 16.8886 51.1742 16.898 52.4102C16.9081 53.3564 18.3951 53.3564 18.385 52.4102C18.3749 51.1742 18.3604 49.9382 18.3503 48.7016C18.3402 47.7554 16.8539 47.7554 16.8633 48.7016Z" fill="#FFC91F"/>
<path opacity="0.45" d="M16.8672 40.1037C16.8874 42.1246 16.907 44.15 16.9221 46.1709C16.9315 47.1177 18.4185 47.1177 18.4085 46.1709C18.3889 44.15 18.3687 42.1246 18.3542 40.1037C18.3441 39.1568 16.8578 39.1568 16.8672 40.1037Z" fill="#FFC91F"/>
<path opacity="0.51" d="M47.3432 37.4455C47.2738 40.3591 47.2442 43.2771 47.2637 46.1957C47.2688 47.1426 48.7557 47.1426 48.7507 46.1957C48.7305 43.2771 48.7602 40.3641 48.8295 37.4455C48.8548 36.4986 47.3678 36.4986 47.3432 37.4455Z" fill="#FFAE1F"/>
<path opacity="0.51" d="M47.3009 48.9718C47.1969 50.2563 47.2265 51.537 47.3905 52.8171C47.509 53.7438 48.996 53.7539 48.8768 52.8171C48.7135 51.537 48.6839 50.2613 48.7879 48.9718C48.8667 48.03 47.3804 48.035 47.3009 48.9718Z" fill="#FFAE1F"/>
<path d="M9.36955 18.9394C11.3074 18.3604 13.2302 17.7229 15.1283 17.0312C16.02 16.7074 15.6334 15.2856 14.7317 15.6138C12.8291 16.3055 10.9108 16.938 8.97352 17.5219C8.06165 17.7916 8.45327 19.214 9.36955 18.9394Z" fill="#6938EF"/>
<path d="M7.69423 30.3574C7.58009 33.8549 7.57567 37.3468 7.66964 40.8438C7.69423 41.7906 9.18121 41.7906 9.15599 40.8438C9.06203 37.3468 9.06708 33.8549 9.18122 30.3574C9.21086 29.4112 7.72387 29.4112 7.69423 30.3574Z" fill="#6938EF"/>
<path d="M7.77343 43.2968C7.7337 44.4843 7.72865 45.6661 7.75324 46.853C7.77342 47.7998 9.25978 47.7998 9.24023 46.853C9.21563 45.6661 9.2251 44.4843 9.25978 43.2968C9.29005 42.3506 7.80307 42.3506 7.77343 43.2968Z" fill="#6938EF"/>
</svg>
