<svg width="143" height="28" viewBox="0 0 143 28" fill="none" xmlns="http://www.w3.org/2000/svg">
<g clip-path="url(#clip0_8179_36561)">
<path d="M9.34452 15.739L7.51384 21.8968L2.6875 21.8492L4.04268 17.2844C5.65939 17.118 7.51384 16.69 9.34452 15.739Z" fill="#6938EF"/>
<path d="M24.6553 5.32568C24.6553 8.70175 22.3254 13.1715 18.3312 17.0468L19.5912 12.7911L14.5985 20.1613C14.5272 20.2089 14.4558 20.2564 14.3607 20.3278L10.842 20.304L10.4141 15.121C11.7692 14.2413 13.0769 13.0526 14.2419 11.4359L14.5509 13.956L20.7562 5.34946H24.6553V5.32568Z" fill="#6938EF"/>
<path d="M27.6742 2.32996C26.6281 1.1412 25.2254 0.380401 23.6087 0C23.894 0.213976 24.1555 0.475502 24.3932 0.737028C28.1259 4.89767 25.8197 13.0287 19.2578 18.8774C12.6959 24.7499 4.37462 26.105 0.641927 21.9444C0.404176 21.6829 0.190201 21.3738 0 21.0885C0.190201 22.729 0.808353 24.203 1.85446 25.3918C5.89622 29.9091 14.9545 28.4112 22.0871 22.0395C29.2196 15.6916 31.716 6.84722 27.6742 2.32996Z" fill="url(#paint0_linear_8179_36561)"/>
<path d="M38.1356 9.53387C38.1831 9.2248 38.2069 8.9395 38.2069 8.67797C38.2069 7.58432 37.8027 6.75219 37.0182 6.18159C36.2098 5.61098 35.0924 5.32568 33.6183 5.32568H30.5276C30.7891 6.44311 30.8842 7.65564 30.7653 8.9395H31.9303C32.9288 8.9395 33.4281 9.29612 33.4281 10.0094C33.4281 10.0807 33.4043 10.2234 33.3806 10.3898C33.2141 11.3408 32.5722 11.8163 31.4548 11.8163H30.2423C29.9332 12.8624 29.529 13.9323 29.0297 14.9546H31.1933C32.2156 14.9546 32.7386 15.335 32.7386 16.0958C32.7386 16.1671 32.7149 16.286 32.6911 16.4524C32.5484 17.4272 31.859 17.9265 30.6702 17.9265H28.1263L28.4591 16.0958C27.3893 18.0216 25.9865 19.876 24.3223 21.5641H30.5276C32.2631 21.5641 33.6896 21.1837 34.7595 20.3991C35.8294 19.6145 36.9706 18.5446 37.2084 17.1181C37.2559 16.8328 37.2797 16.5713 37.2797 16.3335C37.2797 15.549 37.0657 14.8833 36.614 14.3127C36.186 13.7421 35.5679 13.3617 34.7595 13.1952C35.6154 13.005 36.3525 12.5771 36.9706 11.9114C37.565 11.317 37.9692 10.5087 38.1356 9.53387Z" fill="url(#paint1_linear_8179_36561)"/>
<path d="M14.2643 11.4358C13.0755 13.0525 11.7679 14.2412 10.4365 15.1209L10.2463 12.7672L9.34286 15.7629C7.51218 16.7139 5.65772 17.1418 4.04102 17.3082L7.60728 5.34937H13.5511L14.2643 11.4358Z" fill="url(#paint2_linear_8179_36561)"/>
<path d="M54.5119 7.77783H54.0303C53.9036 7.77783 53.7769 7.80318 53.6755 7.87921C53.5741 7.9299 53.4727 8.03128 53.3967 8.13266L47.6434 15.9643L45.489 8.15801C45.4637 8.05663 45.413 7.95525 45.337 7.90456C45.2609 7.85387 45.1595 7.80318 45.0328 7.80318H44.5513C44.3992 7.80318 44.2471 7.85387 44.1204 7.95525C43.9937 8.05663 43.8923 8.2087 43.867 8.36077L41.3324 19.4619C41.3071 19.614 41.3071 19.7661 41.4085 19.8674C41.4845 19.9688 41.6112 20.0195 41.7633 20.0195H42.0421C42.1942 20.0195 42.3462 19.9688 42.473 19.8674C42.5997 19.7661 42.6757 19.614 42.7264 19.4619L44.7033 10.8192L46.5535 17.5864C46.5789 17.6878 46.6296 17.7891 46.7056 17.8398C46.7816 17.8905 46.883 17.9412 47.0097 17.9412H47.3139C47.4406 17.9412 47.542 17.9159 47.6687 17.8398C47.7701 17.7891 47.8715 17.6878 47.9475 17.5864L52.9405 10.7939L50.9382 19.4366C50.9129 19.5886 50.9129 19.7407 51.0143 19.8421C51.0903 19.9435 51.217 19.9942 51.3691 19.9942H51.6479C51.8 19.9942 51.952 19.9435 52.0788 19.8421C52.2055 19.7407 52.3069 19.5886 52.3322 19.4366L54.9428 8.33542C54.9681 8.18335 54.9681 8.03128 54.8667 7.9299C54.7907 7.82852 54.664 7.77783 54.5119 7.77783Z" fill="#344054"/>
<path d="M61.9132 11.7319C61.6851 11.4531 61.3809 11.2503 61.0007 11.0982C60.6206 10.9462 60.215 10.8701 59.7588 10.8701C58.8464 10.8701 57.9593 11.1489 57.2497 11.6305C56.5147 12.1374 56.0077 12.847 55.7543 13.6581C55.7289 13.7341 55.729 13.8101 55.729 13.8862C55.729 13.9622 55.7543 14.0129 55.805 14.0889C55.8557 14.1396 55.9064 14.1903 55.9571 14.2157C56.0331 14.241 56.0838 14.2664 56.1852 14.2664H56.4386C56.5907 14.2664 56.7174 14.2157 56.8441 14.1143C56.9709 14.0129 57.0722 13.8862 57.1229 13.7341C57.275 13.2272 57.6045 12.8217 58.0607 12.5429C58.4409 12.3148 58.9478 12.1881 59.4293 12.1881C59.9616 12.1881 60.3925 12.3401 60.6712 12.6189C61.0007 12.9738 61.1021 13.4807 60.9247 14.165L60.7473 14.9507C60.5192 14.7733 60.2657 14.6212 59.9362 14.5198C59.5307 14.3931 59.0745 14.3171 58.5676 14.3171C57.6298 14.3171 56.7174 14.5958 55.9824 15.1281C55.2474 15.6603 54.7405 16.3954 54.5631 17.2317C54.3603 18.0681 54.5377 18.8031 55.0193 19.3354C55.5008 19.8676 56.2865 20.1464 57.2243 20.1464C57.7566 20.1464 58.2635 20.0704 58.6943 19.9437C59.0492 19.8423 59.3786 19.6902 59.6828 19.5128C59.6828 19.6142 59.7081 19.7156 59.7588 19.7916C59.8349 19.893 59.9616 19.9437 60.1137 19.9437H60.3671C60.5192 19.9437 60.6712 19.893 60.798 19.7916C60.9247 19.6902 61.0261 19.5381 61.0514 19.3861L62.2933 14.1396C62.4201 13.6327 62.4454 13.1765 62.3694 12.7457C62.3187 12.3908 62.1413 12.036 61.9132 11.7319ZM59.8855 17.9667C59.7335 18.1695 59.5561 18.3216 59.328 18.4736C59.0999 18.6004 58.8464 18.7018 58.5676 18.7778C58.2635 18.8538 57.9593 18.8792 57.6298 18.8792C56.9962 18.8792 56.5147 18.7271 56.2359 18.4483C55.9571 18.1695 55.8557 17.764 55.9824 17.2824C56.0838 16.8009 56.3626 16.3954 56.7934 16.1166C57.2243 15.8378 57.7819 15.6857 58.3902 15.6857C58.6183 15.6857 59.2012 15.711 59.6574 15.9391C60.1897 16.1926 60.3924 16.6488 60.2404 17.2824C60.139 17.5359 60.0376 17.764 59.8855 17.9667Z" fill="#344054"/>
<path d="M69.01 15.6097C68.5031 15.2295 67.7681 15.0267 67.1345 14.8746C66.5262 14.7226 65.9939 14.5705 65.6898 14.3677C65.3857 14.165 65.2843 13.8862 65.3857 13.4807C65.487 13.0498 65.7405 12.7457 66.1713 12.5175C66.5262 12.3401 67.0077 12.2388 67.5146 12.2388C67.9709 12.2388 68.3764 12.3401 68.6298 12.5175C68.934 12.7457 69.0607 13.0751 68.9847 13.506C68.9847 13.6581 69.01 13.7848 69.086 13.8608C69.1621 13.9622 69.2888 13.9876 69.4155 13.9876H69.669C69.745 13.9876 69.821 13.9622 69.8971 13.9369C69.9731 13.9115 70.0491 13.8608 70.1252 13.8101C70.2012 13.7595 70.2519 13.6834 70.2773 13.6074C70.3279 13.5314 70.3533 13.4553 70.3533 13.3793C70.48 12.6443 70.3026 12.0106 69.821 11.5544C69.3648 11.0982 68.6552 10.8701 67.7934 10.8701C66.881 10.8701 66.0193 11.1236 65.3096 11.5798C64.6253 12.036 64.1437 12.7203 63.9663 13.4553C63.7636 14.3171 63.941 14.9507 64.5239 15.4069C65.0308 15.7871 65.7151 15.9645 66.3995 16.1419C66.9824 16.294 67.54 16.446 67.8695 16.6741C68.1736 16.9023 68.275 17.181 68.1736 17.5866C68.0722 17.9921 67.7934 18.3216 67.3372 18.5497C66.9317 18.7271 66.4248 18.8538 65.8926 18.8538C65.3857 18.8538 64.9294 18.7524 64.6253 18.5497C64.2705 18.3216 64.1184 17.9921 64.1944 17.5612C64.1944 17.4092 64.1691 17.2824 64.0931 17.2064C64.017 17.105 63.8903 17.0797 63.7636 17.0797H63.5101C63.4341 17.0797 63.358 17.105 63.282 17.1304C63.206 17.1557 63.1299 17.2064 63.0539 17.2571C62.9779 17.3078 62.9272 17.3838 62.9018 17.4598C62.8511 17.5359 62.8258 17.6119 62.8258 17.6879C62.6991 18.423 62.9018 19.0819 63.4087 19.5381C63.9156 19.9944 64.6506 20.2225 65.5884 20.2225C66.5769 20.2225 67.464 19.969 68.1736 19.5128C68.9086 19.0312 69.3902 18.3976 69.5676 17.6119C69.7957 16.7248 69.5929 16.0659 69.01 15.6097Z" fill="#344054"/>
<path d="M76.2067 11.0473H74.8888L75.3704 8.99436C75.3957 8.84229 75.3957 8.69022 75.2943 8.58884C75.2183 8.48746 75.0916 8.43677 74.9395 8.43677H74.686C74.534 8.43677 74.3819 8.48746 74.2552 8.58884C74.1284 8.69022 74.0271 8.84229 74.0017 8.99436L73.5202 11.0473H72.2022C72.0501 11.0473 71.8981 11.098 71.7713 11.1994C71.6446 11.3008 71.5432 11.4528 71.5179 11.6049L71.4672 11.833C71.4419 11.9851 71.4419 12.1372 71.5432 12.2385C71.6193 12.3399 71.746 12.3906 71.8981 12.3906H73.216L71.5432 19.4619C71.5179 19.614 71.5179 19.766 71.6193 19.8674C71.6953 19.9688 71.822 20.0195 71.9741 20.0195H72.2276C72.3796 20.0195 72.5317 19.9688 72.6584 19.8674C72.7851 19.766 72.8865 19.614 72.9119 19.4619L74.5847 12.3906H75.9026C76.0547 12.3906 76.2067 12.3399 76.3335 12.2385C76.4602 12.1372 76.5616 11.9851 76.5869 11.833L76.6376 11.6049C76.663 11.4528 76.6629 11.3008 76.5616 11.1994C76.4855 11.098 76.3588 11.0473 76.2067 11.0473Z" fill="#344054"/>
<path d="M81.5555 10.8701C80.2883 10.8701 79.021 11.3263 78.0072 12.1881C76.9934 13.0498 76.2584 14.2157 75.9289 15.5336C75.6248 16.8262 75.8022 18.0174 76.4105 18.8792C77.0441 19.7409 78.0832 20.1971 79.3505 20.1971C80.2376 20.1971 81.15 19.969 81.9357 19.5635C82.7214 19.1326 83.4057 18.5243 83.8619 17.7893C83.9126 17.7133 83.938 17.6119 83.9633 17.5359C83.9887 17.4598 83.9633 17.3838 83.938 17.3078C83.9126 17.2317 83.8619 17.181 83.7859 17.1304C83.7099 17.0797 83.6338 17.0797 83.5324 17.0797H83.2536C83.1523 17.0797 83.0509 17.105 82.9495 17.1557C82.8228 17.2064 82.7214 17.3078 82.5947 17.4345C82.2905 17.8654 81.885 18.2202 81.3781 18.4736C80.8712 18.7271 80.2883 18.8538 79.7053 18.8538C78.8689 18.8538 78.21 18.6004 77.7791 18.0935C77.3736 17.6373 77.1708 17.0036 77.2215 16.2433H84.0647C84.2168 16.2433 84.3688 16.1926 84.4956 16.0912C84.6223 15.9898 84.7237 15.8631 84.7744 15.6857L84.7997 15.559C85.0785 14.3931 84.9518 13.2272 84.4449 12.3655C84.0393 11.6812 83.203 10.8701 81.5555 10.8701ZM77.5003 14.9C77.8044 14.1143 78.286 13.4553 78.9196 12.9991C79.604 12.4922 80.3897 12.2388 81.2007 12.2388C81.961 12.2388 82.5947 12.5175 83.0002 12.9991C83.3804 13.4807 83.5578 14.1396 83.4818 14.9H77.5003Z" fill="#344054"/>
<path d="M90.9081 10.946C90.3758 10.9714 89.8689 11.0728 89.3874 11.2755C89.0326 11.4276 88.6777 11.6304 88.3736 11.8838L88.4496 11.605C88.475 11.4529 88.475 11.3009 88.3736 11.1995C88.2975 11.0981 88.1708 11.0474 88.0188 11.0474H87.7653C87.6132 11.0474 87.4612 11.0981 87.3344 11.1995C87.2077 11.3009 87.1063 11.4529 87.081 11.605L85.1801 19.4367C85.1547 19.5887 85.1548 19.7408 85.2561 19.8422C85.3322 19.9436 85.4589 19.9942 85.611 19.9942H85.8644C86.0165 19.9942 86.1686 19.9436 86.2953 19.8422C86.422 19.7408 86.5234 19.5887 86.5487 19.4367L87.6132 15.052C87.8413 14.1395 88.2722 13.4045 88.9058 12.923C89.4127 12.5174 90.0464 12.2893 90.6546 12.264C90.7814 12.264 90.9334 12.2133 91.0348 12.1119C91.1362 12.0359 91.2376 11.9092 91.2883 11.6811L91.339 11.4529C91.3643 11.3009 91.3643 11.1488 91.2629 11.0474C91.2122 10.9967 91.0855 10.946 90.9081 10.946Z" fill="#344054"/>
<path d="M102.236 12.7454C102.413 12.5427 102.591 12.3146 102.717 12.0865C102.844 11.8583 102.946 11.6049 102.996 11.3514C103.224 10.439 103.047 9.62797 102.54 9.07038C102.058 8.51279 101.247 8.15796 100.234 8.15796H99.1184H98.0286H96.9134H95.7982C95.6715 8.15796 95.5448 8.1833 95.4687 8.25934C95.3927 8.33538 95.3166 8.43675 95.2913 8.56348L93.9987 13.886L92.7061 19.2084C92.6808 19.3351 92.6808 19.4365 92.7314 19.5126C92.7821 19.5886 92.8835 19.6139 93.0102 19.6139H93.137H93.2637H96.0263H98.7889C99.8281 19.6139 100.817 19.2338 101.628 18.6001C102.439 17.9665 103.022 17.0541 103.275 16.0403C103.452 15.3053 103.427 14.6717 103.224 14.1141C103.098 13.5311 102.717 13.0749 102.236 12.7454ZM97.2429 11.4528L97.4456 10.6418H98.5608H99.676C99.9548 10.6418 100.158 10.7432 100.259 10.8952C100.386 11.0473 100.411 11.2754 100.335 11.5542C100.31 11.6809 100.234 11.8077 100.158 11.9344C100.082 12.0611 99.9548 12.1878 99.8281 12.2892H98.4341H97.0401L97.2429 11.4528ZM100.208 16.7753C99.9295 17.0034 99.5746 17.1555 99.0931 17.1555H97.471H95.8489L96.1784 15.8375L96.5079 14.5196H98.1553H99.8027C100.259 14.5196 100.563 14.6717 100.715 14.8998C100.867 15.1279 100.893 15.4573 100.791 15.8375C100.639 16.2177 100.487 16.5472 100.208 16.7753Z" fill="#344054"/>
<path d="M108.641 7.854H107.83H107.019C106.892 7.854 106.765 7.87935 106.689 7.95538C106.613 8.03142 106.537 8.1328 106.512 8.25953L105.143 13.7341L103.8 19.2086C103.775 19.3353 103.775 19.4367 103.825 19.5128C103.876 19.5888 103.977 19.6141 104.104 19.6141H104.915H105.726C105.853 19.6141 105.98 19.5888 106.056 19.5128C106.132 19.4367 106.208 19.3353 106.233 19.2086L107.576 13.7341L108.92 8.25953C108.945 8.1328 108.945 8.03142 108.894 7.95538C108.869 7.87935 108.767 7.854 108.641 7.854Z" fill="#344054"/>
<path d="M113.93 11.2249C112.713 11.2249 111.522 11.7064 110.559 12.4668C109.596 13.2525 108.835 14.317 108.531 15.5335C108.227 16.7501 108.455 17.8399 109.038 18.6003C109.621 19.386 110.584 19.8422 111.801 19.8422C112.992 19.8422 114.209 19.3606 115.172 18.6003C116.135 17.8146 116.895 16.7501 117.199 15.5335C117.503 14.317 117.301 13.2271 116.692 12.4668C116.084 11.6811 115.121 11.2249 113.93 11.2249ZM113.854 16.9275C113.423 17.257 112.916 17.4597 112.384 17.4597C111.852 17.4597 111.421 17.257 111.167 16.9275C110.914 16.598 110.838 16.1165 110.964 15.5335C111.116 14.9506 111.421 14.469 111.852 14.1395C112.282 13.8101 112.789 13.6073 113.322 13.6073C113.854 13.6073 114.285 13.8101 114.538 14.1395C114.792 14.469 114.868 14.9506 114.741 15.5335C114.589 16.1165 114.259 16.598 113.854 16.9275Z" fill="#344054"/>
<path d="M122.944 13.6326C123.249 13.6326 123.502 13.6833 123.705 13.8101C123.908 13.9114 124.085 14.0889 124.161 14.2916C124.212 14.393 124.262 14.4437 124.313 14.4944C124.389 14.5451 124.465 14.5704 124.566 14.5704H125.479H126.391C126.518 14.5704 126.645 14.5197 126.746 14.4437C126.822 14.3676 126.873 14.2409 126.873 14.1142C126.822 13.2525 126.493 12.5428 125.91 12.0359C125.327 11.529 124.516 11.2249 123.578 11.2249C122.336 11.2249 121.12 11.7064 120.156 12.4668C119.193 13.2525 118.458 14.317 118.154 15.5335C117.85 16.7501 118.053 17.8399 118.636 18.6003C119.219 19.386 120.182 19.8422 121.424 19.8422C122.387 19.8422 123.325 19.538 124.161 19.0311C124.997 18.5242 125.707 17.8146 126.163 16.9528C126.239 16.8261 126.265 16.6994 126.214 16.6234C126.163 16.5473 126.062 16.4966 125.935 16.4966H125.048H124.161C124.034 16.4966 123.958 16.522 123.857 16.5727C123.755 16.6234 123.679 16.6994 123.603 16.8008C123.401 17.0035 123.172 17.1556 122.894 17.257C122.64 17.3584 122.336 17.4091 122.057 17.4091C121.525 17.4091 121.094 17.2063 120.841 16.8768C120.587 16.5473 120.511 16.0658 120.638 15.5082C120.79 14.9506 121.094 14.469 121.525 14.1395C121.88 13.8354 122.412 13.6326 122.944 13.6326Z" fill="#344054"/>
<path d="M133.329 17.3329L132.518 15.5334L134.166 13.7339L135.813 11.9344C135.94 11.8077 135.99 11.681 135.965 11.5796C135.94 11.5036 135.838 11.4275 135.686 11.4275H134.748H133.811C133.709 11.4275 133.608 11.4529 133.507 11.4782C133.405 11.5289 133.329 11.5796 133.253 11.681L131.783 13.3284L130.313 14.9758L131.124 11.7824L131.935 8.58887C131.96 8.46215 131.96 8.36077 131.91 8.28473C131.859 8.2087 131.758 8.18335 131.631 8.18335H130.795H129.984C129.857 8.18335 129.73 8.2087 129.654 8.28473C129.578 8.36077 129.502 8.46215 129.477 8.58887L128.133 13.9113L126.79 19.2338C126.765 19.3605 126.765 19.4619 126.815 19.538C126.866 19.614 126.967 19.6393 127.094 19.6393H127.905H128.716C128.843 19.6393 128.97 19.614 129.046 19.538C129.122 19.4619 129.198 19.3605 129.223 19.2338L129.629 17.6371L130.034 16.0403L130.744 17.7131L131.454 19.3859C131.479 19.4873 131.53 19.538 131.606 19.5886C131.682 19.6393 131.758 19.6393 131.859 19.6393H132.797H133.735C133.887 19.6393 134.013 19.5886 134.089 19.4873C134.166 19.4112 134.166 19.2845 134.115 19.1324L133.329 17.3329Z" fill="#344054"/>
<path d="M140.138 14.7983C139.15 14.5195 138.085 14.5195 138.237 13.9112C138.288 13.7592 138.389 13.6071 138.541 13.5057C138.719 13.4043 138.947 13.3536 139.251 13.3536C139.428 13.3536 139.58 13.4043 139.707 13.4804C139.809 13.5564 139.885 13.6578 139.91 13.7845C139.935 13.9112 139.961 13.9873 140.011 14.038C140.062 14.0887 140.138 14.1393 140.265 14.1393H141.076H141.887C142.014 14.1393 142.14 14.114 142.216 14.038C142.292 13.9619 142.368 13.8605 142.394 13.7338C142.52 12.8721 142.242 12.2385 141.76 11.8329C141.279 11.4274 140.569 11.25 139.809 11.25C138.947 11.25 138.06 11.4528 137.325 11.909C136.59 12.3398 136.032 13.0242 135.804 13.9366C135.399 15.5333 136.336 16.0402 137.325 16.319C138.313 16.5978 139.378 16.6232 139.226 17.2061C139.175 17.3582 139.074 17.5102 138.896 17.6116C138.719 17.713 138.465 17.7637 138.136 17.7637C137.882 17.7637 137.705 17.713 137.553 17.637C137.426 17.5609 137.325 17.4595 137.299 17.3075C137.274 17.2061 137.249 17.1047 137.198 17.054C137.147 17.0033 137.071 16.9526 136.945 16.9526H136.134H135.322C135.196 16.9526 135.069 16.978 134.993 17.054C134.917 17.1301 134.841 17.2314 134.816 17.3582C134.689 18.2199 134.968 18.8535 135.475 19.2591C135.981 19.6646 136.716 19.842 137.553 19.842C138.44 19.842 139.352 19.6392 140.087 19.2084C140.822 18.7775 141.405 18.0932 141.633 17.1554C142.064 15.5587 141.127 15.0518 140.138 14.7983Z" fill="#344054"/>
</g>
<defs>
<linearGradient id="paint0_linear_8179_36561" x1="14.8042" y1="0" x2="14.8042" y2="28" gradientUnits="userSpaceOnUse">
<stop stop-color="#7481F5"/>
<stop offset="1" stop-color="#884DE9"/>
</linearGradient>
<linearGradient id="paint1_linear_8179_36561" x1="16.6931" y1="7.00187" x2="31.2087" y2="21.6195" gradientUnits="userSpaceOnUse">
<stop stop-color="#6938EF"/>
<stop offset="1" stop-color="#5019E8"/>
</linearGradient>
<linearGradient id="paint2_linear_8179_36561" x1="9.15266" y1="5.34937" x2="9.15266" y2="17.3082" gradientUnits="userSpaceOnUse">
<stop stop-color="#9277FF"/>
<stop offset="1" stop-color="#613BFA"/>
</linearGradient>
<clipPath id="clip0_8179_36561">
<rect width="142.424" height="28" fill="white"/>
</clipPath>
</defs>
</svg>
