<svg width="50" height="36" viewBox="0 0 50 36" fill="none" xmlns="http://www.w3.org/2000/svg">
<g id="logo icon">
<path id="Vector" d="M12.0141 20.2363L9.66038 28.1534L3.45508 28.0923L5.19745 22.2232C7.27607 22.0093 9.66038 21.459 12.0141 20.2363Z" fill="white"/>
<path id="Vector_2" d="M31.6989 6.84766C31.6989 11.1883 28.7032 16.9351 23.5678 21.9177L25.1879 16.446L18.7686 25.9221C18.6769 25.9832 18.5852 26.0443 18.463 26.136L13.9389 26.1055L13.3887 19.4417C15.131 18.3106 16.8123 16.7822 18.3101 14.7036L18.7075 17.9438L26.6857 6.87822H31.6989V6.84766Z" fill="white"/>
<path id="Vector_3" d="M35.5811 2.99566C34.2361 1.46726 32.4326 0.489087 30.354 0C30.7208 0.275112 31.0571 0.611359 31.3627 0.947607C36.1619 6.297 33.1968 16.7512 24.7601 24.271C16.3233 31.8213 5.62451 33.5636 0.825335 28.2142C0.519655 27.878 0.244544 27.4806 0 27.1138C0.244544 29.223 1.03931 31.1182 2.3843 32.6466C7.58086 38.4545 19.2273 36.5287 28.3976 28.3365C37.568 20.1749 40.7777 8.80357 35.5811 2.99566Z" fill="url(#paint0_linear_8140_13700)"/>
<path id="Vector_4" d="M49.0315 12.2582C49.0926 11.8608 49.1232 11.494 49.1232 11.1577C49.1232 9.75161 48.6035 8.68173 47.5948 7.9481C46.5555 7.21447 45.1188 6.84766 43.2236 6.84766H39.2497C39.586 8.28435 39.7082 9.84332 39.5554 11.494H41.0532C42.3371 11.494 42.979 11.9525 42.979 12.8695C42.979 12.9612 42.9484 13.1447 42.9179 13.3586C42.7039 14.5814 41.8786 15.1927 40.4419 15.1927H38.8829C38.4855 16.5377 37.9659 17.9133 37.3239 19.2277H40.1056C41.42 19.2277 42.0925 19.7168 42.0925 20.6949C42.0925 20.7866 42.062 20.9395 42.0314 21.1535C41.848 22.4068 40.9615 23.0487 39.4331 23.0487H36.1624L36.5903 20.6949C35.2148 23.1709 33.4112 25.5553 31.2715 27.7256H39.2497C41.4812 27.7256 43.3153 27.2365 44.6908 26.2277C46.0664 25.219 47.5336 23.8434 47.8393 22.0094C47.9005 21.6426 47.931 21.3063 47.931 21.0006C47.931 19.9919 47.6559 19.136 47.0751 18.4023C46.5249 17.6687 45.7301 17.1796 44.6908 16.9657C45.7913 16.7211 46.7389 16.1709 47.5336 15.315C48.2978 14.5508 48.8175 13.5115 49.0315 12.2582Z" fill="url(#paint1_linear_8140_13700)"/>
<path id="Vector_5" d="M18.3415 14.7024C16.8131 16.781 15.1319 18.3094 13.42 19.4404L13.1755 16.4142L12.0139 20.2657C9.66019 21.4884 7.27589 22.0387 5.19727 22.2526L9.78246 6.87695H17.4245L18.3415 14.7024Z" fill="url(#paint2_linear_8140_13700)"/>
</g>
<defs>
<linearGradient id="paint0_linear_8140_13700" x1="19.034" y1="0" x2="19.034" y2="36" gradientUnits="userSpaceOnUse">
<stop stop-color="white" stop-opacity="0.88"/>
<stop offset="1" stop-color="white" stop-opacity="0.9"/>
</linearGradient>
<linearGradient id="paint1_linear_8140_13700" x1="21.4626" y1="9.00275" x2="40.1255" y2="27.7969" gradientUnits="userSpaceOnUse">
<stop stop-color="white"/>
<stop offset="1" stop-color="white"/>
</linearGradient>
<linearGradient id="paint2_linear_8140_13700" x1="11.7694" y1="6.87695" x2="11.7694" y2="22.2526" gradientUnits="userSpaceOnUse">
<stop stop-color="white" stop-opacity="0.85"/>
<stop offset="1" stop-color="white"/>
</linearGradient>
</defs>
</svg>
